<svg width="197" height="50" viewBox="0 0 197 50" fill="none" xmlns="http://www.w3.org/2000/svg">
<path d="M74.8 25.15C74.8 23.4167 75.1583 21.875 75.875 20.525C76.6083 19.1583 77.6417 18.1 78.975 17.35C80.3083 16.5833 81.8417 16.2 83.575 16.2C85.775 16.2 87.625 16.7917 89.125 17.975C90.625 19.1417 91.5917 20.7333 92.025 22.75H86.75C86.4333 22.0833 85.9917 21.575 85.425 21.225C84.875 20.875 84.2333 20.7 83.5 20.7C82.3667 20.7 81.4583 21.1083 80.775 21.925C80.1083 22.725 79.775 23.8 79.775 25.15C79.775 26.5167 80.1083 27.6083 80.775 28.425C81.4583 29.225 82.3667 29.625 83.5 29.625C84.2333 29.625 84.875 29.45 85.425 29.1C85.9917 28.75 86.4333 28.2417 86.75 27.575H92.025C91.5917 29.5917 90.625 31.1917 89.125 32.375C87.625 33.5417 85.775 34.125 83.575 34.125C81.8417 34.125 80.3083 33.75 78.975 33C77.6417 32.2333 76.6083 31.175 75.875 29.825C75.1583 28.4583 74.8 26.9 74.8 25.15ZM96.8203 18.675C95.9536 18.675 95.2536 18.4417 94.7203 17.975C94.2036 17.4917 93.9453 16.8917 93.9453 16.175C93.9453 15.4417 94.2036 14.8333 94.7203 14.35C95.2536 13.8667 95.9536 13.625 96.8203 13.625C97.6703 13.625 98.3536 13.8667 98.8703 14.35C99.4036 14.8333 99.6703 15.4417 99.6703 16.175C99.6703 16.8917 99.4036 17.4917 98.8703 17.975C98.3536 18.4417 97.6703 18.675 96.8203 18.675ZM99.2453 19.975V34H94.3453V19.975H99.2453ZM111.211 19.85C112.827 19.85 114.111 20.3917 115.061 21.475C116.011 22.5417 116.486 23.9917 116.486 25.825V34H111.586V26.475C111.586 25.675 111.377 25.05 110.961 24.6C110.544 24.1333 109.986 23.9 109.286 23.9C108.552 23.9 107.977 24.1333 107.561 24.6C107.144 25.05 106.936 25.675 106.936 26.475V34H102.036V19.975H106.936V21.975C107.369 21.3417 107.952 20.8333 108.686 20.45C109.419 20.05 110.261 19.85 111.211 19.85ZM132.574 26.825C132.574 27.2083 132.549 27.5917 132.499 27.975H123.224C123.274 28.7417 123.483 29.3167 123.849 29.7C124.233 30.0667 124.716 30.25 125.299 30.25C126.116 30.25 126.699 29.8833 127.049 29.15H132.274C132.058 30.1167 131.633 30.9833 130.999 31.75C130.383 32.5 129.599 33.0917 128.649 33.525C127.699 33.9583 126.649 34.175 125.499 34.175C124.116 34.175 122.883 33.8833 121.799 33.3C120.733 32.7167 119.891 31.8833 119.274 30.8C118.674 29.7167 118.374 28.4417 118.374 26.975C118.374 25.5083 118.674 24.2417 119.274 23.175C119.874 22.0917 120.708 21.2583 121.774 20.675C122.858 20.0917 124.099 19.8 125.499 19.8C126.883 19.8 128.108 20.0833 129.174 20.65C130.241 21.2167 131.074 22.0333 131.674 23.1C132.274 24.15 132.574 25.3917 132.574 26.825ZM127.574 25.6C127.574 25 127.374 24.5333 126.974 24.2C126.574 23.85 126.074 23.675 125.474 23.675C124.874 23.675 124.383 23.8417 123.999 24.175C123.616 24.4917 123.366 24.9667 123.249 25.6H127.574ZM145.83 24.95C146.863 25.1833 147.68 25.7 148.28 26.5C148.896 27.2833 149.205 28.1833 149.205 29.2C149.205 30.7 148.688 31.875 147.655 32.725C146.621 33.575 145.171 34 143.305 34H134.58V16.375H143.03C144.83 16.375 146.238 16.775 147.255 17.575C148.288 18.375 148.805 19.5 148.805 20.95C148.805 21.9833 148.53 22.85 147.98 23.55C147.446 24.2333 146.73 24.7 145.83 24.95ZM139.48 23.375H141.955C143.188 23.375 143.805 22.8667 143.805 21.85C143.805 20.8 143.188 20.275 141.955 20.275H139.48V23.375ZM142.33 30.05C143.563 30.05 144.18 29.5333 144.18 28.5C144.18 27.9667 144.013 27.5583 143.68 27.275C143.363 26.9917 142.905 26.85 142.305 26.85H139.48V30.05H142.33ZM150.552 26.975C150.552 25.525 150.81 24.2583 151.327 23.175C151.86 22.0917 152.577 21.2583 153.477 20.675C154.394 20.0917 155.41 19.8 156.527 19.8C157.494 19.8 158.327 19.9917 159.027 20.375C159.727 20.7583 160.269 21.275 160.652 21.925V19.975H165.552V34H160.652V32.05C160.269 32.7 159.719 33.2167 159.002 33.6C158.302 33.9833 157.477 34.175 156.527 34.175C155.41 34.175 154.394 33.8833 153.477 33.3C152.577 32.7167 151.86 31.8833 151.327 30.8C150.81 29.7 150.552 28.425 150.552 26.975ZM160.652 26.975C160.652 26.075 160.402 25.3667 159.902 24.85C159.419 24.3333 158.819 24.075 158.102 24.075C157.369 24.075 156.76 24.3333 156.277 24.85C155.794 25.35 155.552 26.0583 155.552 26.975C155.552 27.875 155.794 28.5917 156.277 29.125C156.76 29.6417 157.369 29.9 158.102 29.9C158.819 29.9 159.419 29.6417 159.902 29.125C160.402 28.6083 160.652 27.8917 160.652 26.975ZM174.319 34.175C173.053 34.175 171.919 33.9667 170.919 33.55C169.936 33.1167 169.153 32.5333 168.569 31.8C168.003 31.05 167.686 30.2083 167.619 29.275H172.369C172.436 29.725 172.644 30.075 172.994 30.325C173.344 30.575 173.778 30.7 174.294 30.7C174.694 30.7 175.011 30.6167 175.244 30.45C175.478 30.2833 175.594 30.0667 175.594 29.8C175.594 29.45 175.403 29.1917 175.019 29.025C174.636 28.8583 174.003 28.675 173.119 28.475C172.119 28.275 171.286 28.05 170.619 27.8C169.953 27.55 169.369 27.1417 168.869 26.575C168.386 26.0083 168.144 25.2417 168.144 24.275C168.144 23.4417 168.369 22.6917 168.819 22.025C169.269 21.3417 169.928 20.8 170.794 20.4C171.678 20 172.736 19.8 173.969 19.8C175.803 19.8 177.244 20.25 178.294 21.15C179.344 22.05 179.953 23.2333 180.119 24.7H175.694C175.611 24.25 175.411 23.9083 175.094 23.675C174.794 23.425 174.386 23.3 173.869 23.3C173.469 23.3 173.161 23.375 172.944 23.525C172.744 23.675 172.644 23.8833 172.644 24.15C172.644 24.4833 172.836 24.7417 173.219 24.925C173.603 25.0917 174.219 25.2667 175.069 25.45C176.086 25.6667 176.928 25.9083 177.594 26.175C178.278 26.4417 178.869 26.875 179.369 27.475C179.886 28.0583 180.144 28.8583 180.144 29.875C180.144 30.6917 179.903 31.425 179.419 32.075C178.953 32.725 178.278 33.2417 177.394 33.625C176.528 33.9917 175.503 34.175 174.319 34.175ZM195.953 26.825C195.953 27.2083 195.928 27.5917 195.878 27.975H186.603C186.653 28.7417 186.862 29.3167 187.228 29.7C187.612 30.0667 188.095 30.25 188.678 30.25C189.495 30.25 190.078 29.8833 190.428 29.15H195.653C195.437 30.1167 195.012 30.9833 194.378 31.75C193.762 32.5 192.978 33.0917 192.028 33.525C191.078 33.9583 190.028 34.175 188.878 34.175C187.495 34.175 186.262 33.8833 185.178 33.3C184.112 32.7167 183.27 31.8833 182.653 30.8C182.053 29.7167 181.753 28.4417 181.753 26.975C181.753 25.5083 182.053 24.2417 182.653 23.175C183.253 22.0917 184.087 21.2583 185.153 20.675C186.237 20.0917 187.478 19.8 188.878 19.8C190.262 19.8 191.487 20.0833 192.553 20.65C193.62 21.2167 194.453 22.0333 195.053 23.1C195.653 24.15 195.953 25.3917 195.953 26.825ZM190.953 25.6C190.953 25 190.753 24.5333 190.353 24.2C189.953 23.85 189.453 23.675 188.853 23.675C188.253 23.675 187.762 23.8417 187.378 24.175C186.995 24.4917 186.745 24.9667 186.628 25.6H190.953Z" fill="url(#paint0_linear_2030_41)"/>
<defs>
<linearGradient id="paint0_linear_2030_41" x1="116.281" y1="-4.59016" x2="124.658" y2="45.8023" gradientUnits="userSpaceOnUse">
<stop stop-color="#19A1BE"/>
<stop offset="1" stop-color="#7D4192"/>
</linearGradient>
</defs>
</svg>
